<mxfile host="app.diagrams.net" agent="Mozilla/5.0 (Windows NT 10.0; Win64; x64) AppleWebKit/537.36 (KHTML, like Gecko) Chrome/136.0.0.0 Safari/537.36" version="27.0.2">
  <diagram name="第 1 页" id="3MJkC8vDo99ZsXQZCq8T">
    <mxGraphModel dx="1042" dy="562" grid="1" gridSize="10" guides="1" tooltips="1" connect="1" arrows="1" fold="1" page="1" pageScale="1" pageWidth="827" pageHeight="1169" math="0" shadow="0">
      <root>
        <mxCell id="0" />
        <mxCell id="1" parent="0" />
        <mxCell id="3RZ1FyWTfDtNXvFvH85x-5" value="" style="edgeStyle=orthogonalEdgeStyle;rounded=0;orthogonalLoop=1;jettySize=auto;html=1;" edge="1" parent="1" source="3RZ1FyWTfDtNXvFvH85x-1" target="3RZ1FyWTfDtNXvFvH85x-4">
          <mxGeometry relative="1" as="geometry" />
        </mxCell>
        <mxCell id="3RZ1FyWTfDtNXvFvH85x-6" value="查询问题文本" style="edgeLabel;html=1;align=center;verticalAlign=middle;resizable=0;points=[];" vertex="1" connectable="0" parent="3RZ1FyWTfDtNXvFvH85x-5">
          <mxGeometry x="-0.105" y="3" relative="1" as="geometry">
            <mxPoint y="-7" as="offset" />
          </mxGeometry>
        </mxCell>
        <mxCell id="3RZ1FyWTfDtNXvFvH85x-1" value="&lt;font style=&quot;font-size: 18px;&quot;&gt;用户查询&lt;/font&gt;" style="rounded=0;whiteSpace=wrap;html=1;" vertex="1" parent="1">
          <mxGeometry x="50" y="20" width="120" height="60" as="geometry" />
        </mxCell>
        <mxCell id="3RZ1FyWTfDtNXvFvH85x-8" value="" style="edgeStyle=orthogonalEdgeStyle;rounded=0;orthogonalLoop=1;jettySize=auto;html=1;" edge="1" parent="1" source="3RZ1FyWTfDtNXvFvH85x-4" target="3RZ1FyWTfDtNXvFvH85x-7">
          <mxGeometry relative="1" as="geometry" />
        </mxCell>
        <mxCell id="3RZ1FyWTfDtNXvFvH85x-9" value="向量表示" style="edgeLabel;html=1;align=center;verticalAlign=middle;resizable=0;points=[];" vertex="1" connectable="0" parent="3RZ1FyWTfDtNXvFvH85x-8">
          <mxGeometry x="-0.01" relative="1" as="geometry">
            <mxPoint x="-1" y="-20" as="offset" />
          </mxGeometry>
        </mxCell>
        <mxCell id="3RZ1FyWTfDtNXvFvH85x-4" value="&lt;font style=&quot;font-size: 18px;&quot;&gt;嵌入模型&lt;/font&gt;&lt;div style=&quot;text-align: left;&quot;&gt;&lt;font style=&quot;font-size: 8px;&quot;&gt;BERT、SentenceTransformer等&lt;/font&gt;&lt;/div&gt;" style="rounded=0;whiteSpace=wrap;html=1;" vertex="1" parent="1">
          <mxGeometry x="260" y="20" width="120" height="60" as="geometry" />
        </mxCell>
        <mxCell id="3RZ1FyWTfDtNXvFvH85x-11" value="" style="edgeStyle=orthogonalEdgeStyle;rounded=0;orthogonalLoop=1;jettySize=auto;html=1;" edge="1" parent="1" source="3RZ1FyWTfDtNXvFvH85x-7" target="3RZ1FyWTfDtNXvFvH85x-10">
          <mxGeometry relative="1" as="geometry" />
        </mxCell>
        <mxCell id="3RZ1FyWTfDtNXvFvH85x-12" value="相似性检索" style="edgeLabel;html=1;align=center;verticalAlign=middle;resizable=0;points=[];" vertex="1" connectable="0" parent="3RZ1FyWTfDtNXvFvH85x-11">
          <mxGeometry x="0.005" y="1" relative="1" as="geometry">
            <mxPoint y="-11" as="offset" />
          </mxGeometry>
        </mxCell>
        <mxCell id="3RZ1FyWTfDtNXvFvH85x-7" value="&lt;font style=&quot;font-size: 18px;&quot;&gt;向量数据库&lt;/font&gt;&lt;div style=&quot;&quot;&gt;&lt;font style=&quot;font-size: 8px;&quot;&gt;外部知识库/文档/知识图谱等&lt;/font&gt;&lt;/div&gt;" style="rounded=0;whiteSpace=wrap;html=1;" vertex="1" parent="1">
          <mxGeometry x="460" y="20" width="120" height="60" as="geometry" />
        </mxCell>
        <mxCell id="3RZ1FyWTfDtNXvFvH85x-14" value="" style="edgeStyle=orthogonalEdgeStyle;rounded=0;orthogonalLoop=1;jettySize=auto;html=1;" edge="1" parent="1" source="3RZ1FyWTfDtNXvFvH85x-10" target="3RZ1FyWTfDtNXvFvH85x-13">
          <mxGeometry relative="1" as="geometry" />
        </mxCell>
        <mxCell id="3RZ1FyWTfDtNXvFvH85x-15" value="拼接检索结果与用户查询" style="edgeLabel;html=1;align=center;verticalAlign=middle;resizable=0;points=[];" vertex="1" connectable="0" parent="3RZ1FyWTfDtNXvFvH85x-14">
          <mxGeometry x="-0.26" y="3" relative="1" as="geometry">
            <mxPoint x="-9" y="-53" as="offset" />
          </mxGeometry>
        </mxCell>
        <mxCell id="3RZ1FyWTfDtNXvFvH85x-10" value="&lt;font style=&quot;font-size: 18px;&quot;&gt;检索Top-K相关知识片段&lt;/font&gt;" style="rounded=0;whiteSpace=wrap;html=1;" vertex="1" parent="1">
          <mxGeometry x="460" y="150" width="120" height="60" as="geometry" />
        </mxCell>
        <mxCell id="3RZ1FyWTfDtNXvFvH85x-17" value="" style="edgeStyle=orthogonalEdgeStyle;rounded=0;orthogonalLoop=1;jettySize=auto;html=1;" edge="1" parent="1" source="3RZ1FyWTfDtNXvFvH85x-13" target="3RZ1FyWTfDtNXvFvH85x-16">
          <mxGeometry relative="1" as="geometry" />
        </mxCell>
        <mxCell id="3RZ1FyWTfDtNXvFvH85x-18" value="构造完整输入" style="edgeLabel;html=1;align=center;verticalAlign=middle;resizable=0;points=[];" vertex="1" connectable="0" parent="3RZ1FyWTfDtNXvFvH85x-17">
          <mxGeometry x="-0.23" y="1" relative="1" as="geometry">
            <mxPoint x="-11" y="-31" as="offset" />
          </mxGeometry>
        </mxCell>
        <mxCell id="3RZ1FyWTfDtNXvFvH85x-13" value="&lt;font style=&quot;font-size: 16px;&quot;&gt;&amp;nbsp;提示词模板增强、构造prompt&lt;/font&gt;" style="rounded=0;whiteSpace=wrap;html=1;" vertex="1" parent="1">
          <mxGeometry x="260" y="150" width="120" height="60" as="geometry" />
        </mxCell>
        <mxCell id="3RZ1FyWTfDtNXvFvH85x-20" value="" style="edgeStyle=orthogonalEdgeStyle;rounded=0;orthogonalLoop=1;jettySize=auto;html=1;" edge="1" parent="1" source="3RZ1FyWTfDtNXvFvH85x-16" target="3RZ1FyWTfDtNXvFvH85x-19">
          <mxGeometry relative="1" as="geometry" />
        </mxCell>
        <mxCell id="3RZ1FyWTfDtNXvFvH85x-21" value="生成回答" style="edgeLabel;html=1;align=center;verticalAlign=middle;resizable=0;points=[];" vertex="1" connectable="0" parent="3RZ1FyWTfDtNXvFvH85x-20">
          <mxGeometry x="0.0743" y="-3" relative="1" as="geometry">
            <mxPoint y="-12" as="offset" />
          </mxGeometry>
        </mxCell>
        <mxCell id="3RZ1FyWTfDtNXvFvH85x-16" value="&lt;font style=&quot;font-size: 16px;&quot;&gt;大语言模型&lt;/font&gt;" style="rounded=0;whiteSpace=wrap;html=1;" vertex="1" parent="1">
          <mxGeometry x="50" y="150" width="120" height="60" as="geometry" />
        </mxCell>
        <mxCell id="3RZ1FyWTfDtNXvFvH85x-19" value="&lt;span style=&quot;font-size: 16px;&quot;&gt;输出结果&lt;/span&gt;" style="rounded=0;whiteSpace=wrap;html=1;" vertex="1" parent="1">
          <mxGeometry x="50" y="260" width="120" height="60" as="geometry" />
        </mxCell>
      </root>
    </mxGraphModel>
  </diagram>
</mxfile>
